<svg xmlns="http://www.w3.org/2000/svg" viewBox="0 0 1600 900" preserveAspectRatio="xMidYMid slice">
  <defs>
    <linearGradient id="bg" x1="0" y1="0" x2="1" y2="1">
      <stop offset="0" stop-color="#020202"/>
      <stop offset="0.48" stop-color="#0a0908"/>
      <stop offset="1" stop-color="#15100a"/>
    </linearGradient>
    <radialGradient id="gold" cx="82%" cy="18%" r="48%">
      <stop offset="0" stop-color="#d3ad66" stop-opacity="0.35"/>
      <stop offset="1" stop-color="#d3ad66" stop-opacity="0"/>
    </radialGradient>
    <radialGradient id="red" cx="74%" cy="35%" r="34%">
      <stop offset="0" stop-color="#cf1028" stop-opacity="0.34"/>
      <stop offset="1" stop-color="#cf1028" stop-opacity="0"/>
    </radialGradient>
    <filter id="soft"><feGaussianBlur stdDeviation="9"/></filter>
  </defs>
  <rect width="1600" height="900" fill="url(#bg)"/>
  <rect width="1600" height="900" fill="url(#gold)"/>
  <rect width="1600" height="900" fill="url(#red)"/>
  <g opacity="0.52" stroke="#f5f0e7" stroke-width="1">
    <path d="M930 0v900" opacity="0.18"/>
    <path d="M1195 0v900" opacity="0.12"/>
    <path d="M1320 0v900" opacity="0.18"/>
    <path d="M0 146h1600" opacity="0.1"/>
    <path d="M0 725h1600" opacity="0.08"/>
  </g>
  <g opacity="0.6">
    <path d="M980 80h420v640H980z" fill="#080808" fill-opacity="0.5" stroke="#f5f0e7" stroke-opacity="0.08"/>
    <path d="M1045 130h250v360h-250z" fill="#111" fill-opacity="0.5" stroke="#d3ad66" stroke-opacity="0.16"/>
    <path d="M1328 120h95v600h-95z" fill="#0d0b08" fill-opacity="0.7"/>
    <g stroke="#d3ad66" stroke-opacity="0.24">
      <path d="M1348 130v580"/><path d="M1370 130v580"/><path d="M1392 130v580"/><path d="M1414 130v580"/>
    </g>
  </g>
  <g filter="url(#soft)" opacity="0.6">
    <rect x="1045" y="292" width="250" height="6" fill="#cf1028"/>
    <rect x="1318" y="0" width="7" height="900" fill="#d3ad66" opacity="0.42"/>
  </g>
  <g stroke="#f5f0e7" stroke-opacity="0.34" fill="none">
    <path d="M995 420h370"/>
    <path d="M1125 556h250"/>
    <path d="M1090 235h190"/>
  </g>
  <g fill="#cf1028">
    <rect x="1122" y="413" width="16" height="16" transform="rotate(45 1130 421)"/>
    <rect x="1360" y="548" width="16" height="16" transform="rotate(45 1368 556)"/>
    <rect x="1274" y="228" width="14" height="14" transform="rotate(45 1281 235)"/>
  </g>
  <rect x="0" y="0" width="760" height="900" fill="#020202" opacity="0.58"/>
</svg>
